<?xml version="1.0" encoding="iso-8859-1"?>
<!-- Uploaded to: SVG Repo, www.svgrepo.com, Generator: SVG Repo Mixer Tools -->
<svg fill="#000000" height="800px" width="800px" version="1.1" id="Layer_1" xmlns="http://www.w3.org/2000/svg" xmlns:xlink="http://www.w3.org/1999/xlink" 
	 viewBox="0 0 512.009 512.009" xml:space="preserve">
<g>
	<g>
		<path d="M124.8,46.605C0,46.605,0,203.763,0,279.3c0,145.715,43.921,232.704,117.504,232.704
			c88.661,0,88.661-101.453,88.661-134.784c0-48.896,9.225-93.628,17.391-133.24c6.135-29.824,11.452-55.586,11.452-77.491
			C234.999,95.902,189.688,46.605,124.8,46.605z M196.463,238.409c-7.987,38.775-17.937,87.04-17.937,138.812
			c0,52.975-7.253,107.136-61.022,107.136c-66.253,0-89.865-105.924-89.865-205.047c0-106.505,11.776-205.065,97.161-205.065
			c49.374,0,82.56,37.077,82.56,92.254C207.36,185.57,202.308,210.044,196.463,238.409z"/>
	</g>
</g>
<g>
	<g>
		<path d="M133.333,115.401c-2.884-2.628-5.461-5-7.629-7.151c-2.611-2.611-6.076-4.053-9.762-4.053
			c-3.703,0-7.159,1.434-9.779,4.036s-6.025,5.513-10.564,9.387c-30.49,26.052-93.935,80.239-50.116,189.841
			c2.074,5.214,7.236,8.713,12.86,8.713c1.766,0,3.49-0.341,5.103-0.998c3.439-1.365,6.127-4.002,7.586-7.39
			c1.451-3.396,1.502-7.151,0.128-10.573c-36.463-91.162,12.885-133.35,42.385-158.566l2.185-1.86
			c27.213,24.986,70.904,66.773,33.434,160.41c-1.374,3.439-1.323,7.185,0.128,10.59c1.459,3.388,4.147,6.025,7.578,7.39
			c1.604,0.649,3.337,0.973,5.137,0.973c5.7,0,10.735-3.396,12.834-8.687C219.913,194.829,161.451,141.188,133.333,115.401z"/>
	</g>
</g>
<g>
	<g>
		<path d="M387.2,0.004c-64.887,0-110.199,49.297-110.199,119.885c0,21.896,5.316,47.659,11.452,77.491
			c8.166,39.612,17.391,84.335,17.391,133.24c0,33.34,0,134.784,88.661,134.784c73.574,0,117.504-86.989,117.504-232.704
			C512,157.163,512,0.004,387.2,0.004z M394.496,437.756c-53.777,0-61.022-54.161-61.022-107.136
			c0-51.772-9.95-100.036-17.937-138.812c-5.854-28.365-10.897-52.838-10.897-71.91c0-55.177,33.186-92.254,82.56-92.254
			c85.385,0,97.161,98.56,97.161,205.065C484.361,331.831,460.749,437.756,394.496,437.756z"/>
	</g>
</g>
<g>
	<g>
		<path d="M416.384,71.027c-4.54-3.874-7.953-6.784-10.564-9.387s-6.067-4.036-9.771-4.036c-3.686,0-7.151,1.434-9.762,4.053
			c-2.159,2.15-4.736,4.523-7.629,7.151c-28.109,25.788-86.579,79.428-41.523,192.06c2.099,5.291,7.134,8.687,12.834,8.687
			c1.801,0,3.541-0.324,5.137-0.973c3.422-1.365,6.11-4.002,7.578-7.39c1.451-3.396,1.502-7.151,0.128-10.59
			c-37.461-93.636,6.221-135.424,33.434-160.41l2.185,1.86c29.5,25.216,78.848,67.396,42.385,158.566
			c-1.374,3.422-1.323,7.177,0.128,10.573c1.459,3.388,4.147,6.025,7.586,7.39c1.613,0.666,3.337,0.998,5.103,0.998
			c5.623,0,10.786-3.499,12.86-8.713C510.328,151.266,446.874,97.079,416.384,71.027z"/>
	</g>
</g>
</svg>